<svg xmlns="http://www.w3.org/2000/svg" width="189" height="22" viewBox="0 0 189 22">
  <g fill="#FFFFFF" fill-rule="evenodd">
    <path d="M13.2269526,21.36 L16.8569526,21.36 L16.8569526,6.36 L23.4269526,16.2 L23.5469526,16.2 L30.1769526,6.3 L30.1769526,21.36 L33.8669526,21.36 L33.8669526,0.36 L29.9369526,0.36 L23.5469526,10.29 L17.1569526,0.36 L13.2269526,0.36 L13.2269526,21.36 Z M54.8169528,21.72 C61.2669528,21.72 65.8269528,16.77 65.8269528,10.86 L65.8269528,10.8 C65.8269528,4.89 61.3269528,0 54.8769528,0 C48.4269528,0 43.8669528,4.95 43.8669528,10.86 L43.8669528,10.92 C43.8669528,16.83 48.3669528,21.72 54.8169528,21.72 Z M54.8769528,18.33 C50.7069528,18.33 47.7369528,14.94 47.7369528,10.86 L47.7369528,10.8 C47.7369528,6.72 50.6469528,3.39 54.8169528,3.39 C58.9869528,3.39 61.9569528,6.78 61.9569528,10.86 L61.9569528,10.92 C61.9569528,15 59.0469528,18.33 54.8769528,18.33 Z M75.826953,21.36 L79.456953,21.36 L79.456953,6.42 L91.036953,21.36 L94.126953,21.36 L94.126953,0.36 L90.496953,0.36 L90.496953,14.88 L79.246953,0.36 L75.826953,0.36 L75.826953,21.36 Z M110.216953,21.36 L113.936953,21.36 L113.936953,3.78 L120.596953,3.78 L120.596953,0.36 L103.556953,0.36 L103.556953,3.78 L110.216953,3.78 L110.216953,21.36 Z M125.526953,21.36 L129.306953,21.36 L131.466953,16.29 L141.396953,16.29 L143.526953,21.36 L147.426953,21.36 L138.186953,0.21 L134.766953,0.21 L125.526953,21.36 Z M132.816953,13.02 L136.416953,4.62 L140.046953,13.02 L132.816953,13.02 Z M166.516954,21.72 C170.236954,21.72 173.206954,20.22 175.276954,18.45 L175.276954,9.63 L166.336954,9.63 L166.336954,12.84 L171.706954,12.84 L171.706954,16.77 C170.416954,17.73 168.616954,18.36 166.636954,18.36 C162.346954,18.36 159.496954,15.18 159.496954,10.86 L159.496954,10.8 C159.496954,6.78 162.436954,3.39 166.306954,3.39 C168.976954,3.39 170.566954,4.26 172.186954,5.64 L174.526954,2.85 C172.366954,1.02 170.116954,0 166.456954,0 C160.126954,0 155.626954,4.98 155.626954,10.86 L155.626954,10.92 C155.626954,17.04 159.946954,21.72 166.516954,21.72 Z"/>
    <polygon points="6.504 17.799 5.669 17.799 0 10.885 5.669 4 6.504 4 2.93 10.885"/>
    <polygon points="188.504 17.799 187.669 17.799 182 10.885 187.669 4 188.504 4 184.93 10.885" transform="rotate(-180 185.252 10.9)"/>
  </g>
</svg>
