<?xml version="1.0" encoding="utf-8"?>
<!-- Generator: Adobe Illustrator 16.0.0, SVG Export Plug-In . SVG Version: 6.00 Build 0)  -->
<svg version="1.2" baseProfile="tiny" id="Layer_1" xmlns="http://www.w3.org/2000/svg" xmlns:xlink="http://www.w3.org/1999/xlink"
	 x="0px" y="0px" width="744px" height="214px" viewBox="0 0 744 214" xml:space="preserve">
<g>
	<path fill="#626366" d="M54.119,204.427v6.6H0.721V127.03h6.84v77.396H54.119z"/>
	<path fill="#626366" d="M123.597,204.427v6.6H68.28V127.03h54.598v6.6H75.12v29.278h38.519v6.36H75.12v35.158H123.597z"/>
	<path fill="#626366" d="M185.397,149.469c-1.8-11.159-11.039-17.879-22.799-17.879c-12.359,0-21.359,5.88-21.359,15.72
		c0,10.199,12.479,13.439,23.88,16.559c11.639,3.24,28.318,7.92,28.318,24.84c0,13.799-11.999,23.998-30.119,23.998
		c-18.119,0-29.158-10.799-30.958-24.599l6.6-1.8c0.96,10.8,9.6,20.039,24.599,20.039c13.92,0,22.68-7.439,22.68-17.52
		c0-13.919-15.84-16.559-27.6-20.039c-9.6-2.76-24.479-6.84-24.479-21.239c0-13.079,12.119-22.198,28.679-22.198
		c14.999,0,26.759,8.759,29.278,22.318L185.397,149.469z"/>
	<path fill="#626366" d="M315.955,127.03v83.996h-6.84v-42.598c0-11.04,0.601-29.52,0.48-29.52h-0.12c-0.12,0-3.72,6.48-7.2,12.72
		l-22.318,38.759h-3.72l-22.319-38.759c-3.48-6.239-7.08-12.72-7.2-12.72h-0.12c-0.119,0,0.48,18.479,0.48,29.52v42.598h-6.84
		V127.03h6.479l22.199,38.278c7.56,12.839,9,16.56,9.12,16.56h0.12c0.119,0,1.56-3.721,9.119-16.56l22.199-38.278H315.955z"/>
	<path fill="#626366" d="M376.076,125.351c24.119,0,43.678,18.358,43.678,43.678s-19.559,43.678-43.678,43.678
		c-24.119,0-43.558-18.358-43.558-43.678S351.958,125.351,376.076,125.351z M376.076,205.987c20.398,0,36.598-15.12,36.598-36.959
		c0-22.079-16.199-36.959-36.598-36.959c-20.519,0-36.478,14.88-36.478,36.959C339.598,190.867,355.557,205.987,376.076,205.987z"/>
	<path fill="#626366" d="M488.875,127.03v6.6h-28.799v77.396h-6.959V133.63h-28.68v-6.6H488.875z"/>
	<path fill="#626366" d="M547.795,149.469c-1.801-11.159-11.041-17.879-22.799-17.879c-12.361,0-21.359,5.88-21.359,15.72
		c0,10.199,12.479,13.439,23.879,16.559c11.639,3.24,28.318,7.92,28.318,24.84c0,13.799-12,23.998-30.119,23.998
		s-29.158-10.799-30.959-24.599l6.6-1.8c0.961,10.8,9.6,20.039,24.6,20.039c13.92,0,22.68-7.439,22.68-17.52
		c0-13.919-15.84-16.559-27.6-20.039c-9.6-2.76-24.479-6.84-24.479-21.239c0-13.079,12.119-22.198,28.678-22.198
		c15,0,26.76,8.759,29.279,22.318L547.795,149.469z"/>
</g>
<g>
	<polygon fill="#FCCD2A" points="697.922,75.237 664.252,108.907 702.252,108.907 716.922,94.237 	"/>
	<polygon fill="#5B8542" points="630.922,28.237 659.252,-0.093 621.252,-0.093 611.922,9.237 	"/>
	<polygon fill="#918F6E" points="586.582,34.577 621.252,-0.093 583.252,-0.093 567.582,15.577 	"/>
	<polygon fill="#F49E25" points="704.252,30.907 626.252,108.907 664.252,108.907 723.252,49.907 	"/>
	<polygon fill="#B11C49" points="629.922,67.237 604.582,92.577 584.252,112.907 584.252,137.907 613.252,108.907 626.252,108.907 
		648.922,86.237 	"/>
	<path fill="#119582" d="M585.582,73.577l-31.355,31.355c3.061,2.544,7.162,3.975,12.025,3.975h18v4l20.33-20.33L585.582,73.577z"/>
	<path fill="#735344" d="M630.922,28.237l-19-19l-25.34,25.34l-38.33,38.33v18c0,6.018,2.186,10.877,5.975,14.025l31.355-31.355
		L630.922,28.237z"/>
	<polygon fill="#FCCD2A" points="567.582,15.577 548.252,34.907 548.252,72.907 586.582,34.577 	"/>
	<path fill="#2E95B6" d="M566.252-0.093c-10.881,0-18,7.12-18,18v17l35-35H566.252z"/>
	<polygon fill="#2FB4BC" points="604.582,92.577 629.922,67.237 697.252,-0.093 659.252,-0.093 585.582,73.577 	"/>
	<path fill="#4E3851" d="M648.922,86.237l55.33-55.33l29.314-29.316c-2.416-1.084-5.205-1.684-8.314-1.684h-28l-67.33,67.33
		L648.922,86.237z"/>
	<path fill="#A27480" d="M733.566,1.591l-29.314,29.316l19,19l20-20v-12C743.252,10.137,739.607,4.302,733.566,1.591z"/>
	<polygon fill="#BF3A2E" points="697.922,75.237 716.922,94.237 743.252,67.907 743.252,29.907 	"/>
	<path fill="#5B8542" d="M725.252,108.907c10.879,0,18-7.12,18-18v-23l-41,41H725.252z"/>
</g>
</svg>
