<svg id="Layer_1" xmlns="http://www.w3.org/2000/svg" xmlns:xlink="http://www.w3.org/1999/xlink" viewBox="0 0 4738.5 3010.26"><style><![CDATA[
	.st0{clip-path:url(#SVGID_2_);fill:#48C3F9;}
	.st1{clip-path:url(#SVGID_2_);fill:#231F20;}
	.st2{clip-path:url(#SVGID_2_);fill:#2A2B2A;}
	.st3{clip-path:url(#SVGID_2_);fill:#34A9EA;}
]]></style><defs><path id="SVGID_1_" d="M0 .002h4738.497V3010.26H0z"/></defs><clipPath id="SVGID_2_"><use xlink:href="#SVGID_1_" overflow="visible"/></clipPath><path class="st3" d="M3.13 2537.76l29.422-51.958c5.006-8.138 16.9-6.884 21.283-3.755 2.502 1.25 47.573 34.43 88.888 34.43 25.04 0 43.19-15.65 43.19-37.56 0-26.29-21.907-46.324-64.474-63.224C67.605 2394.41 0 2352.468 0 2277.35c0-61.97 48.2-124.564 144.6-124.564 65.102 0 115.18 33.175 133.96 46.945 7.51 4.385 6.26 15.65 3.757 20.034l-31.925 48.2c-4.384 6.883-15.65 12.517-21.284 8.137-5.633-3.128-51.33-37.557-89.514-37.557-22.536 0-39.438 15.02-39.438 31.925 0 23.158 18.78 40.688 68.23 60.717 48.828 19.408 126.45 57.593 126.45 142.726 0 64.476-55.713 129.575-147.732 129.575-81.377 0-126.446-33.8-140.844-48.2-6.26-6.258-8.136-8.764-3.13-17.525"/><path class="st2" d="M1050.98 2170.935c0-6.258 5.008-11.892 11.894-11.892h187.166c75.12 0 136.465 60.72 136.465 135.213 0 57.587-38.185 103.908-92.646 125.82l85.758 158.997c4.383 8.137 0 18.153-10.642 18.153h-83.254c-5.01 0-8.763-3.13-10.015-5.634l-83.256-165.883h-43.19v159.624c0 6.258-5.634 11.892-11.895 11.892h-74.49c-6.887 0-11.895-5.634-11.895-11.892v-414.4zm190.923 175.275c25.667 0 47.575-23.788 47.575-50.08 0-26.29-21.908-47.574-47.575-47.574h-92.644v97.654h92.643zM1626.86 2170.935c0-6.258 5.01-11.892 11.895-11.892h187.166c75.12 0 136.466 60.72 136.466 135.213 0 57.587-38.185 103.908-92.646 125.82l85.76 158.997c4.382 8.137 0 18.153-10.643 18.153h-83.254c-5.01 0-8.763-3.13-10.015-5.634l-83.256-165.883h-43.192v159.624c0 6.258-5.633 11.892-11.894 11.892h-74.49c-6.887 0-11.895-5.634-11.895-11.892v-414.4zm190.924 175.275c25.665 0 47.575-23.788 47.575-50.08 0-26.29-21.91-47.574-47.576-47.574h-92.645v97.654h92.644zM2146.406 2580.95l195.93-421.282c1.878-3.754 6.263-6.883 10.642-6.883h6.262c4.38 0 8.763 3.13 10.642 6.883l195.93 421.283c3.754 8.14-1.25 16.276-10.642 16.276h-69.483c-11.267 0-16.275-3.754-21.908-15.65l-22.54-49.45h-170.263l-22.534 50.075c-3.13 7.514-10.016 15.026-22.535 15.026h-68.86c-9.39 0-14.398-8.137-10.642-16.275m257.276-133.957l-47.57-103.288h-.63l-46.946 103.288h95.146zM2807.418 2251.06h-89.512c-6.89 0-11.896-5.633-11.896-11.892v-68.233c0-6.258 5.008-11.892 11.896-11.892h277.933c6.883 0 11.89 5.634 11.89 11.892v68.233c0 6.26-5.007 11.892-11.89 11.892h-89.518v334.275c0 6.26-5.633 11.892-11.89 11.892h-75.118c-6.264 0-11.896-5.633-11.896-11.892V2251.06zM614.687 2218.242H539.57c-6.258 0-11.89 5.633-11.89 11.89v355.204c0 6.258 5.632 11.89 11.895 11.89h75.116c6.26 0 11.894-5.632 11.894-11.89V2230.133c0-6.258-5.634-11.89-11.897-11.89M3417.105 2152.785c125.195 0 225.354 100.778 225.354 225.975s-100.16 224.725-225.355 224.725c-125.196 0-224.726-99.528-224.726-224.725s99.53-225.975 224.725-225.975m0 350.546c68.858 0 125.195-56.338 125.195-124.57 0-68.858-56.337-125.82-125.195-125.82-68.23 0-124.566 56.962-124.566 125.82 0 68.232 56.336 124.57 124.565 124.57M3849.63 2537.76l29.42-51.958c5.01-8.138 16.9-6.884 21.283-3.755 2.504 1.25 47.575 34.43 88.888 34.43 25.038 0 43.192-15.65 43.192-37.56 0-26.29-21.908-46.324-64.475-63.224-53.833-21.283-121.438-63.226-121.438-138.343 0-61.97 48.2-124.565 144.6-124.565 65.1 0 115.18 33.175 133.958 46.945 7.513 4.384 6.258 15.65 3.754 20.033l-31.926 48.2c-4.38 6.883-15.645 12.517-21.282 8.137-5.634-3.13-51.33-37.558-89.513-37.558-22.536 0-39.437 15.02-39.437 31.925 0 23.158 18.78 40.688 68.232 60.717 48.825 19.408 126.446 57.593 126.446 142.726 0 64.475-55.71 129.574-147.728 129.574-81.38 0-126.45-33.8-140.847-48.2-6.255-6.257-8.134-8.763-3.126-17.524M4317.836 2580.95l195.93-421.282c1.88-3.754 6.264-6.883 10.643-6.883h6.26c4.38 0 8.764 3.13 10.643 6.883l195.93 421.283c3.76 8.14-1.25 16.276-10.642 16.276h-69.483c-11.266 0-16.275-3.754-21.908-15.65l-22.538-49.45H4442.41l-22.54 50.075c-3.128 7.514-10.01 15.026-22.532 15.026h-68.857c-9.39 0-14.398-8.137-10.644-16.275m257.275-133.957l-47.57-103.288h-.628l-46.947 103.288h95.146z"/><path class="st2" d="M798.727 2159.043H539.573c-6.886 0-11.894 5.633-11.894 11.892v80.125h271.047c6.885 0 11.894-5.634 11.894-11.892v-68.233c0-6.26-5.01-11.892-11.893-11.892M640.218 2420.658v.044h158.508c6.26 0 11.894-5.01 11.894-11.896v-68.23c0-6.26-5.633-11.895-11.894-11.895H626.412v.097h-98.734v91.882h112.54zM801.69 2505.615H527.678v79.72c0 6.26 5.01 11.892 11.894 11.892h259.154c6.886 0 11.894-5.633 11.894-11.892v-68.233c0-5.313-3.627-10.14-8.93-11.487"/><path class="st1" d="M1463.878 2799.7c0-2.116 1.812-3.93 3.927-3.93h121.14c2.115 0 3.927 1.813 3.927 3.93v5.134c0 2.115-1.812 3.93-3.927 3.93H1478.38v83.376h95.763c2.115 0 3.927 1.813 3.927 3.928v5.137c0 2.114-1.812 3.928-3.927 3.928h-95.764v89.42h110.565c2.115 0 3.927 1.815 3.927 3.926v4.832c0 2.115-1.812 3.93-3.927 3.93h-121.14c-2.115 0-3.927-1.814-3.927-3.93V2799.7zM1707.347 2979.144l2.718-3.623c2.115-2.416 4.23-3.32 6.645-1.21 3.022 2.723 25.377 23.264 55.89 23.264 27.49 0 50.752-18.43 50.752-40.483 0-26.885-22.055-38.968-58.608-51.353-35.043-12.385-58.304-24.77-58.304-59.515 0-22.655 18.126-53.47 65.253-53.47 29.908 0 51.96 15.408 51.96 15.408 1.21.905 3.324 3.02 1.21 6.342-.908 1.21-1.815 2.72-2.418 3.93-1.813 2.416-3.625 3.32-6.647 1.507-.904-.605-21.146-14.195-44.406-14.195-37.16 0-51.056 22.957-51.056 40.176 0 25.682 19.637 36.856 50.15 46.83 41.385 14.193 67.668 28.694 67.668 63.74 0 30.21-31.116 53.772-65.858 53.772-35.948 0-60.116-21.148-64.044-24.77-1.812-1.514-3.322-3.022-.905-6.348M1959.58 2799.7c0-2.116 1.812-3.93 3.926-3.93h64.95c37.46 0 68.275 30.514 68.275 67.67 0 37.764-30.813 68.578-67.972 68.578h-54.98v71.292c0 2.115-1.815 3.93-4.834 3.93h-5.44c-2.112 0-3.926-1.814-3.926-3.93V2799.7zm68.274 118.42c29.604 0 54.68-24.47 54.68-54.982 0-29.604-25.076-53.17-54.984-53.17h-53.772v108.153h54.076zM2176.166 3003.612l93.046-210.255c.603-1.21 2.113-2.115 3.625-2.115h.905c1.512 0 3.02.3 3.93 2.115l92.14 210.255c.602 1.814.602 3.627-2.72 3.627h-7.855c-2.115 0-3.625-1.513-4.23-2.72l-24.47-55.585h-115.4l-24.168 55.586c-.606 1.207-2.117 2.72-4.23 2.72h-8.46c-2.114 0-3.02-1.207-2.114-3.628m149.235-66.46l-51.658-121.742h-.604l-52.565 121.743H2325.4zM2572.196 2792.75c30.813 0 53.772 10.275 73.408 28.097 1.512 1.513 1.813 3.925.304 5.437l-4.834 5.135c-1.814 1.813-3.324 1.512-5.137-.302-17.22-15.405-38.97-24.77-63.74-24.77-52.868 0-94.255 43.2-94.255 95.46 0 51.963 41.387 94.86 94.254 94.86 25.98 0 45.615-10.272 63.74-25.377 1.813-1.51 3.626-1.51 4.834-.602l5.138 5.135c1.51 1.21 1.51 3.623 0 5.135-20.543 19.938-46.826 29.303-73.712 29.303-60.42 0-109.36-47.727-109.36-108.453 0-60.42 48.94-109.057 109.36-109.057M2770.346 2799.7c0-2.116 1.814-3.93 3.927-3.93h6.647c2.115 0 3.926 1.813 3.926 3.93v203.61c0 2.417-2.115 3.93-4.23 3.93h-6.344c-2.112 0-3.927-1.814-3.927-3.93V2799.7zM3018.052 2792.75c60.722 0 109.056 48.637 109.056 109.057 0 60.725-48.334 108.453-109.056 108.453-60.42 0-108.755-47.73-108.755-108.453 0-60.42 48.336-109.057 108.755-109.057m0 204.22c52.867 0 95.765-42.296 95.765-95.163 0-52.868-42.897-95.762-95.765-95.762s-95.463 42.894-95.463 95.762c0 52.867 42.594 95.163 95.462 95.163"/><path class="st0" d="M1818.018 974.498l239.512 420.44-239.512 428.6 501.39-20.08 230.148-441.043-255.95-399.276z"/><path class="st3" d="M2508.635 1373.49h-442.28s-237.837 408.28-227.21 410.937c10.627 2.657 459.61 13.284 459.61 13.284l209.88-424.22z"/><path class="st2" d="M2587.035 1343.378L2343.908 922.26c-13.175-22.823-37.735-37.004-64.096-37.004h-486.27c-26.36 0-50.92 14.182-64.09 37.005l-243.13 421.113c-13.187 22.83-13.187 51.187 0 74.01l243.13 421.123c13.176 22.824 37.736 37 64.09 37h486.27c26.355 0 50.916-14.176 64.09-37l243.133-421.117c13.186-22.83 13.186-51.188 0-74.012m-755.983 425.956c-11.676 0-22.562-6.283-28.403-16.4l-205.63-356.155c-5.84-10.117-5.84-22.68 0-32.796l205.63-356.155c5.84-10.113 16.72-16.396 28.402-16.396h411.252c11.68 0 22.562 6.283 28.403 16.395l205.628 356.154c5.84 10.117 5.84 22.68 0 32.795l-205.628 356.155c-5.84 10.116-16.727 16.4-28.403 16.4h-411.252z"/><path class="st2" d="M1875.493 1786.446l204.84-375.465c13.626-24.974 12.825-65.01-1.788-89.42l-199.66-333.53c-14.614-24.41-46.154-32.195-70.447-17.388l-2.687 1.638c-24.292 14.808-31.92 46.466-17.033 70.712l174.23 283.79c14.887 24.245 15.908 64.147 2.283 89.122l-176.37 323.28c-13.625 24.974-5.278 55.8 18.645 68.852 23.923 13.052 54.362 3.385 67.988-21.59M3355.69 908.86l-243.126-421.117c-13.176-22.824-37.735-37.005-64.097-37.005h-486.27c-26.36 0-50.92 14.182-64.09 37.005l-243.132 421.112c-13.186 22.83-13.186 51.188 0 74.01l243.133 421.123c13.175 22.824 37.734 37 64.09 37h486.27c26.355 0 50.915-14.176 64.09-37L3355.69 982.87c13.186-22.827 13.186-51.185 0-74.01m-755.982 425.956c-11.676 0-22.562-6.283-28.403-16.4L2365.677 962.26c-5.84-10.116-5.84-22.678 0-32.795l205.628-356.155c5.842-10.112 16.723-16.395 28.403-16.395h411.252c11.68 0 22.562 6.283 28.403 16.395l205.628 356.155c5.842 10.117 5.842 22.68 0 32.795l-205.627 356.156c-5.842 10.117-16.728 16.4-28.403 16.4h-411.252z"/><path class="st2" d="M3259.172 876.198h-427.707c-28.45 0-63.212 19.877-77.643 44.396l-217.03 370.59c-14.43 24.518 13.703 20.354 38.337 34.588l2.723 1.574c24.634 14.235 34.784 42.516 48.94 17.837l186.975-325.613c14.155-24.68 48.694-44.685 77.145-44.685h368.26c28.45 0 51.514-22.092 51.514-49.344 0-27.25-23.065-49.342-51.515-49.342M2591.035 458.125L2347.908 37.007C2334.733 14.183 2310.173.002 2283.812.002h-486.27c-26.36 0-50.92 14.18-64.09 37.005l-243.13 421.112c-13.187 22.828-13.187 51.187 0 74.01l243.13 421.122c13.176 22.824 37.736 37 64.09 37h486.27c26.356 0 50.916-14.176 64.09-37l243.133-421.117c13.186-22.828 13.186-51.187 0-74.01M1835.053 884.08c-11.676 0-22.563-6.283-28.403-16.4l-205.628-356.155c-5.84-10.116-5.84-22.678 0-32.795l205.628-356.155c5.84-10.112 16.722-16.395 28.403-16.395h411.25c11.683 0 22.563 6.283 28.404 16.395l205.63 356.155c5.84 10.117 5.84 22.68 0 32.795l-205.63 356.156c-5.84 10.118-16.727 16.4-28.403 16.4h-411.25z"/><path class="st2" d="M2520.203 555.132H2059.12c-30.67 0-68.145-21.428-83.702-47.86l-212.553-361.15c-15.557-26.434-6.64-60.3 19.916-75.647l2.938-1.696c26.556-15.347 60.454-6.218 75.713 20.387l178.612 311.405c15.26 26.604 52.493 48.173 83.164 48.173h396.997c30.67 0 55.533 23.815 55.533 53.193s-24.863 53.194-55.533 53.194"/></svg>