<?xml version="1.0" encoding="utf-8"?>
<!-- Generator: Adobe Illustrator 16.0.0, SVG Export Plug-In . SVG Version: 6.00 Build 0)  -->
<!DOCTYPE svg PUBLIC "-//W3C//DTD SVG 1.1//EN" "http://www.w3.org/Graphics/SVG/1.1/DTD/svg11.dtd">
<svg version="1.1" id="Layer_1" xmlns="http://www.w3.org/2000/svg" xmlns:xlink="http://www.w3.org/1999/xlink" x="0px" y="0px"
	 width="228.867px" height="51.614px" viewBox="0 0 228.867 51.614" enable-background="new 0 0 228.867 51.614"
	 xml:space="preserve">
<polygon fill="#8DC63F" points="227.357,48.62 204.49,25.807 228.867,1.512 225.877,1.5 202.99,24.312 178.621,0 178.611,2.98 
	201.492,25.807 177.107,50.112 180.107,50.109 202.99,27.301 227.361,51.614 "/>
<rect x="60.32" y="1.654" fill="#3A3A3A" width="52.226" height="2.127"/>
<rect x="60.32" y="24.818" fill="#3A3A3A" width="52.226" height="2.127"/>
<rect x="60.32" y="47.982" fill="#3A3A3A" width="52.226" height="2.127"/>
<rect y="1.654" fill="#3A3A3A" width="52.227" height="2.127"/>
<polygon fill="#3A3A3A" points="26.194,24.963 26.194,27.088 50.24,27.088 50.24,47.982 2.127,47.982 2.127,24.4 0.001,24.4 
	0.001,47.982 0.001,49.754 0.001,50.109 52.367,50.109 52.367,24.963 "/>
<polygon fill="#3A3A3A" points="119.297,1.654 119.297,50.107 121.422,50.107 121.422,3.78 169.398,3.78 169.398,50.107 
	171.523,50.107 171.523,1.654 "/>
<g>
</g>
<g>
</g>
<g>
</g>
<g>
</g>
<g>
</g>
<g>
</g>
<g>
</g>
<g>
</g>
<g>
</g>
<g>
</g>
<g>
</g>
<g>
</g>
<g>
</g>
<g>
</g>
<g>
</g>
</svg>
