<?xml version="1.0" encoding="utf-8"?>
<!-- Generator: Adobe Illustrator 16.0.0, SVG Export Plug-In . SVG Version: 6.00 Build 0)  -->
<!DOCTYPE svg PUBLIC "-//W3C//DTD SVG 1.1//EN" "http://www.w3.org/Graphics/SVG/1.1/DTD/svg11.dtd">
<svg version="1.1" id="Layer_1" xmlns="http://www.w3.org/2000/svg" xmlns:xlink="http://www.w3.org/1999/xlink" x="0px" y="0px"
	 width="146.749px" height="63.844px" viewBox="122.421 60.5 146.749 63.844" enable-background="new 122.421 60.5 146.749 63.844"
	 xml:space="preserve">
<g>
	<g>
		<path fill="#9B9B9B" d="M146.157,80.295c0.593,0.592,0.89,1.297,0.89,2.111v20.455c0,1.111-0.482,1.963-1.446,2.558
			c-1.037,0.592-2.038,0.592-3.001,0c-0.964-0.593-1.445-1.446-1.445-2.558V82.406c0-0.445,0.111-0.852,0.333-1.223
			c0.446-1.185,1.297-1.779,2.558-1.779C144.934,79.404,145.639,79.702,146.157,80.295z"/>
		<path fill="#9B9B9B" d="M152.271,90.298c0-2.594,0.778-4.854,2.334-6.78c1.852-2.371,4.558-3.558,8.115-3.558
			c5.335,0.52,8.632,2.927,9.894,7.226c0.223,0.964,0.37,2.002,0.445,3.112v12.673c0,1.187-0.556,2.04-1.667,2.559
			c-0.446,0.221-0.853,0.332-1.223,0.332c-1.26,0-2.112-0.591-2.557-1.778c-0.148-0.369-0.222-0.74-0.222-1.111V90.3
			c-0.148-2.742-1.704-4.262-4.669-4.559c-2.521,0-4.04,1.187-4.559,3.557c-0.074,0.372-0.11,0.705-0.11,1.002v12.672
			c0,1.187-0.594,2.039-1.779,2.558c-0.297,0.222-0.667,0.333-1.112,0.333c-1.26,0-2.149-0.592-2.668-1.778
			c-0.149-0.369-0.222-0.74-0.222-1.111V90.298L152.271,90.298z"/>
		<path fill="#9B9B9B" d="M178.172,90.298c0-2.594,0.778-4.854,2.335-6.78c1.853-2.371,4.558-3.558,8.115-3.558
			c5.335,0.52,8.632,2.927,9.894,7.226c0.222,0.964,0.369,2.002,0.444,3.112v12.673c0,1.187-0.555,2.04-1.667,2.559
			c-0.445,0.221-0.853,0.332-1.222,0.332c-1.261,0-2.113-0.591-2.558-1.778c-0.148-0.369-0.222-0.74-0.222-1.111V90.3
			c-0.149-2.742-1.705-4.262-4.669-4.559c-2.521,0-4.04,1.187-4.559,3.557c-0.075,0.372-0.111,0.705-0.111,1.002v12.672
			c0,1.187-0.593,2.039-1.779,2.558c-0.296,0.222-0.666,0.333-1.111,0.333c-1.259,0-2.149-0.592-2.667-1.778
			c-0.148-0.369-0.223-0.74-0.223-1.111L178.172,90.298L178.172,90.298z"/>
		<path fill="#9B9B9B" d="M206.962,79.404c0.814,0,1.557,0.297,2.224,0.891c0.593,0.592,0.89,1.333,0.89,2.223v12.671
			c0,1.04,0.185,1.891,0.556,2.558c0.519,0.964,1.149,1.595,1.89,1.89c0.668,0.223,1.408,0.334,2.223,0.334
			c1.854,0,3.113-0.555,3.781-1.667l0.332-0.556c0.37-0.814,0.557-1.667,0.557-2.557V82.518c0-1.186,0.518-2.075,1.557-2.667
			c1.037-0.593,2-0.593,2.889,0c1.039,0.592,1.558,1.481,1.558,2.667v12.673c-0.446,5.113-2.743,8.448-6.892,10.004
			c-1.188,0.445-2.446,0.667-3.781,0.667c-3.557,0-6.335-1.335-8.336-4.002c-0.37-0.445-0.705-0.926-1.001-1.445
			c-0.888-1.704-1.334-3.446-1.334-5.226V82.518c0-1.335,0.557-2.261,1.669-2.78C206.11,79.515,206.518,79.404,206.962,79.404z"/>
		<path fill="#9B9B9B" d="M251.873,82.406v21.79c0,4.446-0.934,7.199-2.889,9.449c-1.615,1.854-9.486,5.8-17.01,0.555
			c-1.25-0.872-1.861-2.704-0.979-3.991c1.012-1.479,2.396-2.037,3.98-1.011c4.943,3.202,8.801,1.37,9.895,0.223
			c0.881-0.928,1-2.149,1-4.67c-2.074,1.039-4.299,1.336-6.67,0.889c-4.744-1.259-7.559-4.668-8.449-10.227
			c-0.148-0.889-0.221-1.814-0.221-2.778V82.408c0-1.334,0.59-2.26,1.777-2.78c0.295-0.147,0.666-0.222,1.111-0.222
			c0.889,0,1.631,0.297,2.223,0.89c0.594,0.594,0.889,1.297,0.889,2.112v10.227c0,3.188,0.816,5.373,2.447,6.559
			c0.74,0.519,1.48,0.778,2.225,0.778c0.961-0.074,1.777-0.335,2.443-0.778c1.039-0.445,1.705-1.037,2.002-1.778
			c0.148-0.592,0.223-1.334,0.223-2.224V82.408c0-1.112,0.52-2.001,1.557-2.668c1.035-0.518,2.002-0.518,2.889,0
			C251.355,80.405,251.873,81.295,251.873,82.406z"/>
	</g>
	
		<linearGradient id="SVGID_1_" gradientUnits="userSpaceOnUse" x1="-572.3994" y1="-45.9009" x2="-572.3994" y2="-54.667" gradientTransform="matrix(1 0 0 -1 716.5 22.123)">
		<stop  offset="0" style="stop-color:#F6A01D"/>
		<stop  offset="1" style="stop-color:#E74F31"/>
	</linearGradient>
	<circle fill="url(#SVGID_1_)" cx="144.101" cy="72.407" r="4.383"/>
</g>
</svg>
